# xmcd
#
# Track frame offsets: 
#        150
#        19005
#        34953
#        52739
#        71043
#        80522
#        103855
#        122018
#        136075
#        152419
#        167477
#        175416
#        195532
#        213888
#
# Disc length: 3098 seconds
#
# Revision: 0
# Processed by: cddbd v1.5.2PL0 Copyright (c) Steve Scherf et al.
# Submitted via: ExactAudioCopy v0.95b4
#
DISCID=b20c180e
DTITLE=The Uban Sophisticates - The Coward's Anthem
DYEAR=2005
DGENRE=Hip-Hop
TTITLE0=Coward's Anthem
TTITLE1=We Can Watch It All (Feat. DP and Eric Petersen)
TTITLE2=Run (Feat. Joel Simmons)
TTITLE3=Chapel Hill
TTITLE4=Kaos Mathematics (Feat. DJ SK)
TTITLE5=It's About Time
TTITLE6=Breakups
TTITLE7=I'm Feelin' It (Feat. Caroline Faust)
TTITLE8=Fake Gun Hands
TTITLE9=To The Top (Feat. DP)
TTITLE10=Soule Crime (Feat. Mary Nicole Denman)
TTITLE11=Testify (Intro by Graiscalre, Keys by Joel Simmons)
TTITLE12=Legend (Outro by Graiscalre)
TTITLE13=The Waiting Room (Feat. Marta Richardson)
EXTD=
EXTT0=
EXTT1=
EXTT2=
EXTT3=
EXTT4=
EXTT5=
EXTT6=
EXTT7=
EXTT8=
EXTT9=
EXTT10=
EXTT11=
EXTT12=
EXTT13=
PLAYORDER=
